<svg xmlns="http://www.w3.org/2000/svg" fill-rule="evenodd" stroke-linejoin="round" stroke-miterlimit="2" clip-rule="evenodd" viewBox="0 0 134 134"><path d="M127.064 108.333c0-1.139-.924-2.063-2.064-2.063l-116.667 0c-1.139 0-2.063.924-2.063 2.063l0 16.667c0 1.14.924 2.064 2.063 2.064l116.667 0c1.14 0 2.064-.924 2.064-2.064l0-16.667zm-116.667 2.064l0 12.539 112.539 0 0-12.539-112.539 0zM27.064 25c0-1.14-.924-2.064-2.064-2.064l-16.667 0c-1.139 0-2.063.924-2.063 2.064l0 75c0 1.14.924 2.064 2.063 2.064l16.667 0c1.14 0 2.064-.924 2.064-2.064l0-75zm-16.667 2.064l0 70.872 12.539 0 0-70.872-12.539 0zM82.619 8.333c0-1.139-.924-2.063-2.063-2.063l-22.223 0c-1.139 0-2.063.924-2.063 2.063l0 91.667c0 1.14.924 2.064 2.063 2.064l22.223 0c1.139 0 2.063-.924 2.063-2.064l0-91.667zm-22.222 2.064l0 87.539 18.095 0 0-87.539-18.095 0zM127.064 8.333c0-1.139-.924-2.063-2.064-2.063l-16.667 0c-1.139 0-2.063.924-2.063 2.063l0 91.667c0 1.14.924 2.064 2.063 2.064l16.667 0c1.14 0 2.064-.924 2.064-2.064l0-91.667zm-16.667 2.064l0 87.539 12.539 0 0-87.539-12.539 0z"/><path d="M27.064 97.936l22.936 0c1.139 0 2.064.925 2.064 2.064 0 1.139-.925 2.064-2.064 2.064l-25 0c-1.14 0-2.064-.924-2.064-2.064l0-62.5c0-1.14.924-2.064 2.064-2.064l25 0c1.14 0 2.064.924 2.064 2.064l0 16.667c0 1.139-.925 2.063-2.064 2.063-1.139 0-2.064-.924-2.064-2.063l0-14.603-20.872 0 0 58.372zM82.619 97.936l25.714 0c1.139 0 2.064.925 2.064 2.064 0 1.139-.925 2.064-2.064 2.064l-27.777 0c-1.14 0-2.064-.924-2.064-2.064l0-62.5c0-1.14.924-2.064 2.064-2.064l27.777 0c1.14 0 2.064.924 2.064 2.064l0 16.667c0 1.139-.925 2.063-2.064 2.063-1.139 0-2.063-.924-2.063-2.063l0-14.603-23.651 0 0 58.372z"/><path d="M43.73 45.833c0-1.139-.924-2.063-2.063-2.063l-8.334 0c-1.139 0-2.063.924-2.063 2.063l0 45.834c0 1.139.924 2.063 2.063 2.063l8.334 0c1.139 0 2.063-.924 2.063-2.063l0-45.834zm-8.333 2.064l0 41.706 4.206 0 0-41.706-4.206 0zM92.381 45.833l0 45.834c0 1.139.924 2.063 2.063 2.063 1.139 0 2.064-.924 2.064-2.063l0-45.834c0-1.139-.925-2.063-2.064-2.063-1.139 0-2.063.924-2.063 2.063zM75.675 16.667c0-1.14-.924-2.064-2.064-2.064l-8.333 0c-1.14 0-2.064.924-2.064 2.064l0 8.333c0 1.14.924 2.064 2.064 2.064l8.333 0c1.14 0 2.064-.924 2.064-2.064l0-8.333zm-8.334 2.063l0 4.206 4.206 0 0-4.206-4.206 0z"/></svg>