<svg version="1.1" id="Capa_1" xmlns="http://www.w3.org/2000/svg" xmlns:xlink="http://www.w3.org/1999/xlink" x="0px" y="0px"
	 viewBox="0 0 489.302 489.302" style="enable-background:new 0 0 489.302 489.302;" xml:space="preserve">
<path d="M384.24,129.309c-0.001-0.299-0.038-0.591-0.09-0.88c-0.014-0.075-0.028-0.148-0.045-0.222
	c-0.064-0.28-0.143-0.554-0.253-0.816c-0.01-0.024-0.024-0.045-0.034-0.068c-0.105-0.241-0.234-0.471-0.375-0.692
	c-0.041-0.063-0.081-0.125-0.124-0.186c-0.163-0.231-0.339-0.454-0.541-0.655c-0.003-0.003-0.007-0.006-0.01-0.009
	c-0.196-0.195-0.414-0.368-0.643-0.53c-0.065-0.046-0.132-0.09-0.199-0.133c-0.063-0.04-0.12-0.087-0.186-0.124L178.924,7.897
	C169.975,2.73,159.783,0,149.45,0c-10.451,0-20.744,2.79-29.766,8.067c-9.187,5.374-14.653,14.938-14.623,25.58
	c0.004,1.388,0.106,2.756,0.293,4.099v301.217c0,18.497,9.958,35.721,25.988,44.949l181.895,104.723
	c0.148,0.085,0.301,0.154,0.455,0.223c0.041,0.019,0.079,0.042,0.121,0.06c0.263,0.109,0.535,0.188,0.809,0.251
	c0.074,0.017,0.148,0.031,0.223,0.044c0.294,0.053,0.589,0.089,0.887,0.089c0.298,0,0.594-0.036,0.888-0.089
	c0.075-0.014,0.15-0.028,0.224-0.044c0.276-0.063,0.55-0.142,0.815-0.253c0.033-0.014,0.064-0.033,0.097-0.048
	c0.166-0.073,0.331-0.15,0.49-0.242l63.506-36.905c0.046-0.027,0.081-0.063,0.126-0.091c0.156-0.098,0.3-0.208,0.444-0.322
	c0.118-0.093,0.237-0.183,0.345-0.285c0.122-0.115,0.229-0.242,0.339-0.369c0.102-0.118,0.207-0.233,0.297-0.359
	c0.097-0.136,0.178-0.283,0.261-0.429c0.075-0.132,0.153-0.26,0.216-0.398c0.071-0.155,0.123-0.317,0.177-0.479
	c0.049-0.145,0.1-0.288,0.136-0.438c0.037-0.155,0.056-0.314,0.078-0.474c0.024-0.172,0.046-0.342,0.052-0.516
	c0.002-0.055,0.016-0.107,0.016-0.163V129.323l0-0.006C384.24,129.314,384.24,129.312,384.24,129.309z M320.733,169.342
	l53.507-31.301v306.478l-53.507,31.095V169.342z M124.735,16.698C132.225,12.316,140.771,10,149.45,10
	c8.58,0,17.043,2.268,24.474,6.558l195.365,112.794l-53.572,31.34L124.831,50.483c-5.123-2.957-8.509-7.884-9.476-13.558v-5.905
	c0-0.174-0.034-0.339-0.051-0.509C116.19,24.748,119.568,19.721,124.735,16.698z M115.355,338.963V55.978
	c1.375,1.17,2.865,2.236,4.476,3.166l11.698,6.754V324.66c0,2.762,2.239,5,5,5s5-2.238,5-5V71.671l169.204,97.69v306.292
	l-169.204-97.416v-17.167c0-2.762-2.239-5-5-5s-5,2.238-5,5v10.936C121.437,364.146,115.355,351.945,115.355,338.963z
	 M343.045,173.262v267.835c0,2.762-2.238,5-5,5s-5-2.238-5-5V173.262c0-2.762,2.238-5,5-5S343.045,170.5,343.045,173.262z
	 M364.485,161.834v267.835c0,2.762-2.238,5-5,5s-5-2.238-5-5V161.834c0-2.762,2.238-5,5-5S364.485,159.072,364.485,161.834z
	 M122.619,32.346c1.371-2.398,4.425-3.23,6.822-1.86l191.895,109.656c2.397,1.37,3.23,4.424,1.86,6.821
	c-0.923,1.615-2.609,2.521-4.346,2.521c-0.841,0-1.693-0.213-2.476-0.66L124.48,39.167
	C122.082,37.797,121.249,34.743,122.619,32.346z M141.808,17.264c1.37-2.397,4.424-3.232,6.821-1.862l191.895,109.58
	c2.397,1.369,3.231,4.423,1.862,6.821c-0.923,1.615-2.61,2.521-4.347,2.521c-0.841,0-1.692-0.212-2.475-0.659L143.67,24.085
	C141.272,22.716,140.438,19.662,141.808,17.264z M160.207,227.304l113.423,65.389c0.772,0.445,1.635,0.668,2.497,0.668
	c0.863,0,1.728-0.224,2.501-0.671c1.547-0.894,2.499-2.543,2.499-4.329v-87.809c0-1.794-0.961-3.451-2.52-4.341l-113.422-64.82
	c-1.548-0.885-3.449-0.878-4.991,0.017c-1.542,0.895-2.49,2.542-2.49,4.324v87.24C157.704,224.759,158.658,226.411,160.207,227.304z
	 M167.704,144.348l103.423,59.105v76.253l-103.423-59.623V144.348z"/>
<g>
</g>
<g>
</g>
<g>
</g>
<g>
</g>
<g>
</g>
<g>
</g>
<g>
</g>
<g>
</g>
<g>
</g>
<g>
</g>
<g>
</g>
<g>
</g>
<g>
</g>
<g>
</g>
<g>
</g>
</svg>
